<svg xmlns="http://www.w3.org/2000/svg" viewBox="0 0 255.38 275.76"><defs><style>.cls-1{fill:#f9c909;}.cls-1,.cls-2,.cls-3{fill-rule:evenodd;}.cls-2{fill:#030100;}</style></defs><title>logo</title><g id="Layer_2" data-name="Layer 2"><g id="Layer_1-2" data-name="Layer 1"><g id="Layer_1-3" data-name="Layer_1"><g id="g4873"><path id="use173" class="cls-1" d="M101,0h.57c3.89,4.68,7.85,9.29,11.74,14,1.8,2,2.59,4.61,3.45,7a103,103,0,0,1,1.59,10.52,98.39,98.39,0,0,0,16.56-.22,37.94,37.94,0,0,1-.51,4.1c-5.4-.21-10.87-.28-16.27-.28-.5-4.18-.72-8.5-2.45-12.39A17.28,17.28,0,0,0,112,16.92c-2.88-3.46-5.76-6.91-8.57-10.44-.57-.58-1.15-1.58-2.09-1.3A88.14,88.14,0,0,0,91.08,7.92c-.86,1.94-.72,4.18-1.15,6.34-.51,5.47-2.23,10.94-1.37,16.48-1-3.31-1.94-6.76-1.3-10.29C88.2,14.69,89,8.86,89.93,3,93.6,2.09,97.34,1.08,101,0Z"/><path id="use177" class="cls-1" d="M140,14.26c3.67-4.76,7.56-9.36,11.38-14,3.88.93,7.84,2,11.73,3.09,1,4.9,1.8,9.79,2.74,14.69a22.8,22.8,0,0,1,.5,8.86c-.57,4.24-2.73,8-4.25,12,4.83,2.88,9.72,5.47,14.48,8.35-.8,1.15-1.66,2.23-2.45,3.38-3.67-2.23-7.42-4.39-11.16-6.4,3.38,7.48,6.77,15.19,12.6,21.09a9.31,9.31,0,0,0,6.48,2.88c-5,6.34-9.94,12.6-14.91,18.94-8.28-.79-16.63-1.73-24.91-2.67-4,6-7.92,12-12,17.86-.14-21.46-.07-43-.07-64.44h30.38c.22.36.36.72.58,1.15a27,27,0,0,0,2.95-11.81c-.94-6.33-2.3-12.52-3.38-18.79-3.75-1-7.49-2-11.16-3.09-3.46,4.17-6.84,8.42-10.23,12.6a15.69,15.69,0,0,0-2.81,4.68C137.3,19.58,138.1,16.63,140,14.26Z"/><path id="use179" class="cls-2" d="M101.3,5.18c.94-.21,1.52.72,2.09,1.3,2.81,3.53,5.69,7,8.57,10.44a17.28,17.28,0,0,1,3.74,5.83c1.73,3.89,2,8.21,2.45,12.39,5.4,0,10.87.07,16.27.28a37.94,37.94,0,0,0,.51-4.1,40.63,40.63,0,0,1,1.65-8.78,15.69,15.69,0,0,1,2.81-4.68c3.39-4.18,6.77-8.43,10.23-12.6,3.67,1.08,7.41,2.08,11.16,3.09,1.08,6.27,2.44,12.46,3.38,18.79A27,27,0,0,1,161.21,39c-.22-.43-.36-.79-.58-1.15H130.25c0,21.46-.07,43,.07,64.44,4-5.9,7.92-11.88,12-17.86,8.28.94,16.63,1.88,24.91,2.67,5-6.34,9.94-12.6,14.91-18.94a9.31,9.31,0,0,1-6.48-2.88c-5.83-5.9-9.22-13.61-12.6-21.09,3.74,2,7.49,4.17,11.16,6.4.79-1.15,1.65-2.23,2.45-3.38a31,31,0,0,1,5.11-6,14,14,0,0,1,4.32-2.66c4.82-1.8,9.72-3.6,14.61-5.47.72-.22,1.73-.79,2.38,0,2.45,2.16,4.75,4.53,7.06,7,.72.65.28,1.73.07,2.52-1.73,4.47-3.31,8.93-4.83,13.47-.93,3.09-3.09,5.61-5.4,7.84-2.16,1.88-4.6,3.46-6.84,5.19,1.59,3,3.46,5.83,5,8.78-5-.72-10-3-12.88-7.27-5.62,7.06-10.88,14.33-16.42,21.46-8.14-.87-16.27-2.09-24.48-3.1-4,6-8.21,11.81-12.31,17.64a17.63,17.63,0,0,0-2.16,3.6c-.51,4.82-.07,9.65,0,14.4.21,10.66-.07,21.38.21,32,.15,3.67.15,7.42.08,11.16-1.37,0-2.81,0-4.18-.07,0-6.41-.07-12.82.22-19.3.21-10.15-.08-20.3.07-30.38.07-2.59.29-5.11.14-7.63a28.28,28.28,0,0,0-3.6-5.62C119,99.5,115.49,94.1,111.67,88.85c-8.13,1-16.2,2.23-24.33,3.09-5.55-7-11-14.32-16.35-21.52a19.64,19.64,0,0,1-5,4.82,24.1,24.1,0,0,1-10.51,2.81c1.73-3.31,3.67-6.55,5.47-9.87-.86-.57-1.72-1.22-2.66-1.87-.07,0-.22-.14-.29-.14a.7.7,0,0,0-.65-.65c-.07,0-.36-.07-.5-.07.07-.36-.14-.58-.5-.65-1.08-.72-2.16-1.51-3.17-2.3-1.73-2.09-3.75-4.18-4.68-6.77-2.16-5.4-4.18-10.8-6.41-16.13,2.66-2.74,5.4-5.4,8-8.21,5.19,1.8,10.23,3.89,15.41,5.76a21.24,21.24,0,0,1,7.78,5.19c2.08,2.37,3.88,5,5.83,7.48,4.68-2.59,9.29-5.32,13.89-8l-1.29-3a42.51,42.51,0,0,1-3.17-8.07c-.86-5.54.86-11,1.37-16.48.43-2.16.29-4.4,1.15-6.34A88.14,88.14,0,0,1,101.3,5.18Z"/><path id="use181" class="cls-1" d="M46.87,27.86c4.39,1.3,8.64,3.17,13,4.68,2.74,1.23,5.91,1.8,8.28,3.89C72,39.17,74.52,43.34,77.4,47c4.75-2.74,9.5-5.55,14.33-8.21l1.29,3c-4.6,2.67-9.21,5.4-13.89,8-1.95-2.52-3.75-5.11-5.83-7.48a21.24,21.24,0,0,0-7.78-5.19c-5.18-1.87-10.22-4-15.41-5.76-2.59,2.81-5.33,5.47-8,8.21,2.23,5.33,4.25,10.73,6.41,16.13.93,2.59,2.95,4.68,4.68,6.77-3.82-2.67-7.2-6.27-8.57-10.8-1.8-4.54-3.6-9.15-5.4-13.68-.29-.72-.65-1.66,0-2.24,2.52-2.66,5.11-5.25,7.63-7.92Z"/><path id="use183" class="cls-1" d="M192.89,33.55c4.75-1.65,9.36-3.67,14.18-5.11,2.74,2.88,5.69,5.69,8.43,8.57-2.16,6-4.25,12-6.48,17.93-2.52,5.32-7.71,8.49-12.17,12,2.23,3.67,4.46,7.41,6.69,11.16.87-.22,1.73-.36,2.6-.58,0,1.3,0,2.52.07,3.75-.07,17.06,0,34.05-.07,51-3.75-.28-7.85-1-11.38.8-3.46,1.58-5.62,5-6.84,8.49a26.92,26.92,0,0,1-1.58,4.25c-.36.79-1.52.58-2.16.72-8.07.22-16.13-.14-24.2.14-5.61.22-11.16.15-16.7.15-2.52,7-5,14-7.49,20.88-1.8,4.75-3.24,9.65-5.33,14.25-.28-4.68-.28-9.43-.28-14.18.07-3.74.07-7.49-.08-11.16-.28-10.66,0-21.38-.21-32-.07-4.75-.51-9.58,0-14.4a17.63,17.63,0,0,1,2.16-3.6c4.1-5.83,8.35-11.66,12.31-17.64,8.21,1,16.34,2.23,24.48,3.1,5.54-7.13,10.8-14.4,16.42-21.46,2.88,4.25,7.84,6.55,12.88,7.27-1.58-3-3.45-5.76-5-8.78,2.24-1.73,4.68-3.31,6.84-5.19,2.31-2.23,4.47-4.75,5.4-7.84,1.52-4.54,3.1-9,4.83-13.47.21-.79.65-1.87-.07-2.52-2.31-2.45-4.61-4.82-7.06-7-.65-.79-1.66-.22-2.38,0-4.89,1.87-9.79,3.67-14.61,5.47a15.65,15.65,0,0,0-4.32,2.66,27.53,27.53,0,0,1,5.83-5.32,27,27,0,0,1,5.33-2.31Z"/><path id="use185" class="cls-1" d="M95.47,37.87c10.15-.07,20.38-.07,30.53-.07,0,21.46.07,42.91-.07,64.44-4-6-8.07-11.81-12-17.86-8.36.87-16.64,1.73-25,2.67-4.89-6.34-9.93-12.6-14.83-18.94a8.58,8.58,0,0,0,6.19-2.66c3.82-3.6,6.34-8.28,8.86-12.82A91.18,91.18,0,0,0,95.47,37.87Z"/><path id="use187" class="cls-2" d="M98.5,40.46h24.33c-.43,9-.36,18,0,27,0,8.28.07,16.64-.07,25-3-4.39-5.33-9.07-8-13.61-8.35.86-16.63,1.94-25,3.1-3.67-4.25-7.41-8.43-11.08-12.68,3-.14,5.11-2.44,7-4.53a73.23,73.23,0,0,0,7.7-12.67,97.3,97.3,0,0,0,5.12-11.6Z"/><path id="use189" class="cls-2" d="M132.91,40.46h24a105.42,105.42,0,0,0,11.16,22c2.16,3,4.68,6.62,8.71,6.91-3.6,4.25-7.34,8.35-10.94,12.6-8.43-.72-16.78-2.23-25.2-3C138.17,83.59,135.5,88,133,92.45c-.79-9.36-.21-18.79-.07-28.15,0-8-.07-15.92,0-23.84Z"/><path id="use191" class="cls-1" d="M56.38,64.8c.36.07.57.29.5.65A.57.57,0,0,1,56.38,64.8Z"/><path id="use193" class="cls-1" d="M57.38,65.52a.7.7,0,0,1,.65.65A.71.71,0,0,1,57.38,65.52Z"/><path id="use195" class="cls-1" d="M58.32,66.31c.94.65,1.8,1.3,2.66,1.87-1.8,3.32-3.74,6.56-5.47,9.87A24.1,24.1,0,0,0,66,75.24a19.64,19.64,0,0,0,5-4.82c5.4,7.2,10.8,14.47,16.35,21.52,8.13-.86,16.2-2.08,24.33-3.09,3.82,5.25,7.35,10.65,11.16,15.91a28.28,28.28,0,0,1,3.6,5.62c.15,2.52-.07,5-.14,7.63-.15,10.08.14,20.23-.07,30.38-.29,6.48-.22,12.89-.22,19.3,0,4.82.14,9.65-.29,14.4-1.87-4.75-3.53-9.58-5.25-14.33-2.45-7-5-14-7.49-20.88-5.47-.07-10.87,0-16.35-.22-8.85-.36-17.78.22-26.64-.43-1.58-4.25-2.8-9.21-6.69-12.09s-8.79-2.38-13.18-1.88c-.14-17.2.07-34.34-.14-51.48,0-1.08.07-2.16.14-3.24l1.8.22C54.07,73.94,56.23,70.13,58.32,66.31Z"/><path id="use197" class="cls-2" d="M66.67,79.06a10.18,10.18,0,0,0,3.75-5c4.75,7.12,9.5,14.32,14.32,21.45,8.5-.79,16.92-2.37,25.42-3.6,3.6,5.83,7,11.81,10.58,17.64.72,1.3,1.66,2.67,1.52,4.25.07,17.28.5,34.63.79,51.91-2-4.39-3-9.07-4.61-13.61-1.15-3.45-2.45-6.91-3.89-10.22-14-.07-27.93,0-41.9-.07-1.51-4-3.17-8.14-6.34-11.16a13.68,13.68,0,0,0-7.7-3.75,62.06,62.06,0,0,0-6.41.08V79.34c4.54,2.09,10.15,2.31,14.47-.28Z"/><path id="use199" class="cls-2" d="M170.71,95.69c4.9-7.13,9.58-14.47,14.4-21.6.65,1.65,1.3,3.38,2.81,4.46,4.39,3.17,10.44,3.1,15.34,1.08v47.59c-3.89-.43-8.21-.64-11.6,1.66-4.82,2.74-6.91,8-8.78,12.89-14,.07-28,0-42,.07-1.36,3.38-2.66,6.77-3.81,10.22-1.66,4.61-2.67,9.44-4.61,13.9.14-6.05.14-12,.22-18.07.36-6.12,0-12.17.36-18.29.28-5.26-.15-10.51.21-15.77a8,8,0,0,1,1.44-4c3.53-5.9,7.06-11.81,10.44-17.71,8.57.86,17,2.66,25.56,3.6Z"/><path id="use201" class="cls-1" d="M30.46,76.68a22.91,22.91,0,0,1,12.6,1.44,25.2,25.2,0,0,0-7.71-.29q-8.1,1.41-16.2,2.59c-.86,3.82-1.87,7.49-2.73,11.31,3.16,2.59,6.4,5.18,9.57,7.77,2.38,1.88,4.54,4.11,7.42,5.26,4.17,1.94,8.93,2.09,13.46,2.66,0,5.48.22,10.88.29,16.35-1.3.14-2.52.36-3.82.5a145.76,145.76,0,0,0-.14-16.85c-3.67-.5-7.49-.57-11.09-1.65a18.09,18.09,0,0,1-6-2.81c-4.32-3.31-8.5-7-12.89-10.37-.58-.65-1.87-1.15-1.66-2.23.87-3.67,1.87-7.27,2.81-10.94,5.33-1.08,10.73-1.8,16.06-2.74Z"/><path id="use203" class="cls-1" d="M217.8,77.18c3.82-.79,7.56.36,11.3.94,4,.72,8,1.37,12,2,1,3.24,2,6.55,3,9.79.14.79.5,1.8-.22,2.45-3.09,2.73-6.48,5.25-9.57,7.92-2.45,1.94-4.68,4.32-7.63,5.4a32.5,32.5,0,0,1-7.85,1.72c2.16-.93,4.39-1.58,6.26-3.09,3.24-2.52,6.34-5.33,9.58-7.85a33.72,33.72,0,0,0,3.45-3c.65-.72-.07-1.8-.14-2.52-.86-2.81-1.51-5.69-2.52-8.43-.14-.5-.65-.57-1.08-.72-2.45-.5-5-.86-7.49-1.29-5.25-.79-10.65-2.45-16.05-1.08a22.15,22.15,0,0,1,7-2.31Z"/><path id="use205" class="cls-2" d="M35.35,77.83a25.2,25.2,0,0,1,7.71.29c2.37.79,4.6,1.8,6.91,2.66.21,17.14,0,34.28.14,51.48,4.39-.5,9.43-1.08,13.18,1.88S68.4,142,70,146.23c8.86.65,17.79.07,26.64.43,5.48.22,10.88.15,16.35.22,2.52,6.91,5,13.9,7.49,20.88h-4.25c-2.31-5.76-4.75-11.45-7-17.21-13-.07-26,0-39,0-.58,4.9-1.08,10.23-4.32,14.26a9.13,9.13,0,0,1-4,3.09l-4.75-.21c.93-.72,1.87-1.37,2.73-2.09,1-.79,2-1.51,3-2.3-2.81-4.76-5.62-9.44-8.43-14.19-3.89,1.44-7.49,3.75-11.73,4.18a16.79,16.79,0,0,1-6.84-.22c-5.12-.93-10.23-1.65-15.27-2.66-1.15-3.75-2.16-7.49-3.24-11.23,4.25-3.46,8.5-7,12.67-10.52a18.26,18.26,0,0,1,5.55-3,32.42,32.42,0,0,1,7.77-1.37c1.3-.14,2.52-.36,3.82-.5-.07-5.47-.36-10.87-.29-16.35-4.53-.57-9.29-.72-13.46-2.66-2.88-1.15-5-3.38-7.42-5.26-3.17-2.59-6.41-5.18-9.57-7.77.86-3.82,1.87-7.49,2.73-11.31Q27.25,79.23,35.35,77.83Z"/><path id="use207" class="cls-2" d="M210.82,79.49c5.4-1.37,10.8.29,16.05,1.08,2.52.43,5,.79,7.49,1.29.43.15.94.22,1.08.72,1,2.74,1.66,5.62,2.52,8.43.07.72.79,1.8.14,2.52a33.72,33.72,0,0,1-3.45,3c-3.24,2.52-6.34,5.33-9.58,7.85-1.87,1.51-4.1,2.16-6.26,3.09-1.87.36-3.82.58-5.69.8-1.44.07-2.81.21-4.25.36a157.66,157.66,0,0,0,.29,16.41c2.88.29,5.76.65,8.64.94H218c2.66,1.15,5.61,1.87,7.92,3.81,4.53,3.6,9,7.35,13.53,11-.93,3.74-1.8,7.49-2.73,11.16-5.69.86-11.31,1.8-16.92,2.74-2.24.5-4.47,0-6.63-.29-2.23-.72-4.46-1.59-6.62-2.52-1.3-.58-2.52-1.08-3.82-1.66-2.59,4.68-5.25,9.36-7.77,14,1.08.87,2.23,1.73,3.38,2.59.36.29.79.58,1.22.87l-5.47.21a10.7,10.7,0,0,1-5.11-5c-2.16-3.82-2.45-8.21-2.95-12.39-13,0-26.07-.07-39.1,0-2.3,5.69-4.53,11.45-6.91,17.14h-4.25c2.45-6.91,5-13.9,7.49-20.88,5.54,0,11.09.07,16.7-.15,8.07-.28,16.13.08,24.2-.14.64-.14,1.8.07,2.16-.72a26.92,26.92,0,0,0,1.58-4.25c1.22-3.53,3.31-6.91,6.84-8.49,3.53-1.8,7.63-1.08,11.38-.8.07-17,0-34,.07-51,1.51-.58,3-1.23,4.61-1.73Z"/><path id="use217" class="cls-1" d="M208.87,108.58c1.44-.15,2.81-.29,4.25-.36.36,5.61,0,11.37.5,17,1.44.21,2.81.43,4.18.72-2.88-.29-5.76-.65-8.64-.94a157.66,157.66,0,0,1-.29-16.41Z"/><path id="use213" class="cls-1" d="M98.21,102.67c2.45-1.37,5.4-1.15,8.06-.93a7.2,7.2,0,0,1,6.34,6.4c.36,5.84.14,11.74.14,17.57a7.49,7.49,0,0,1-5.76,7.42c-3.89.93-9.36.5-11.37-3.53a16.94,16.94,0,0,1-.94-5H102c.29,1.15.08,2.45.65,3.53.51.72,1.44.5,2.23.58a57.4,57.4,0,0,0,.58-8c-1.58,1.3-3.53,2.38-5.54,2a5.94,5.94,0,0,1-4.76-3.82c-.72-3.45-.43-7.05-.36-10.58a7,7,0,0,1,3.39-5.62Z"/><path id="use215" class="cls-1" d="M74.66,102.17c5.4-.07,10.8-.07,16.13,0V107c-3.17.22-6.33.15-9.5.22V112c1.73-.86,3.45-2.23,5.47-1.8a6.18,6.18,0,0,1,4.1,2c1.73,3.09,1.16,6.91,1.3,10.36-.07,2.6.36,5.62-1.37,7.85-1,1.8-3.17,2.59-5,2.88-3.09.36-6.62.22-9.14-1.87-2.67-2.59-2.31-6.55-2.52-9.94h7.7a45.28,45.28,0,0,0,.15,6.27c.21,1.22,2.37,1.51,2.59.14a65.61,65.61,0,0,0,.07-11.3c-.07-1-.79-2.09-1.94-1.66-.87.65-.8,1.87-1.16,2.81h-7c0-5.18-.29-10.37.21-15.55Z"/><path id="use219" class="cls-2" d="M102.53,107a1.37,1.37,0,0,1,2.45,0,29.43,29.43,0,0,1-.08,11,7.15,7.15,0,0,1-1.72-.15c-1-.57-.87-2-.94-3a31.79,31.79,0,0,1,.29-7.85Z"/><path id="use209" class="cls-1" d="M145.08,103a10.46,10.46,0,0,1,6-1.37,8.71,8.71,0,0,1,7.27,2.81c1.37,1.66,1.3,3.89,1.58,5.9h-7.7c-.14-1.22-.14-2.52-.29-3.74h-2.52c-.14,2.52-.21,5.11-.21,7.7a6.37,6.37,0,0,1,9.5.36c1.58,2.31.94,5.26,1.15,7.85-.14,2.59.36,5.4-1.08,7.71a8,8,0,0,1-5.83,3.24c-3,.36-6.55.14-8.93-2a6.18,6.18,0,0,1-2.37-5.26,120.33,120.33,0,0,1,0-17.71,6.73,6.73,0,0,1,3.38-5.47Z"/><path id="use211" class="cls-1" d="M163.08,105.84a7.29,7.29,0,0,1,6.84-4.25c3.17-.29,6.84.65,8.71,3.46,2,3,1.59,6.91,0,10-2.16,4.46-5.11,8.49-7.77,12.67,2.8,0,5.54.07,8.35.07v5.26c-5.69-.08-11.38.21-17.07-.15.15-2-.28-4.25,1.16-6,2.66-4.4,5.32-8.79,7.84-13.32,1.23-2.24,2.09-5.19.65-7.56-.72.28-1.94.28-2.3,1.15a28,28,0,0,0-.43,5.47h-6.84c.14-2.3-.15-4.75.86-6.84Z"/><path id="use221" class="cls-2" d="M149.69,117.14h2.09a46.06,46.06,0,0,1,.36,10.37,1.61,1.61,0,0,1-2,1.3c-1.15-.87-.72-2.52-.86-3.67a36.81,36.81,0,0,1,.43-8Z"/><path id="use223" class="cls-1" d="M25.63,129.82a18.82,18.82,0,0,1,9.94-4.18,19.12,19.12,0,0,0-5.55,3c-4.17,3.53-8.42,7.06-12.67,10.52,1.08,3.74,2.09,7.48,3.24,11.23,5,1,10.15,1.73,15.27,2.66a16.79,16.79,0,0,0,6.84.22c4.24-.43,7.84-2.74,11.73-4.18,2.81,4.75,5.62,9.43,8.43,14.19-1,.79-2,1.51-3,2.3-2.95-4.82-5.76-9.72-8.71-14.54-2.88,1.15-5.62,2.52-8.57,3.6a20.85,20.85,0,0,1-8.64.93c-5.18-.79-10.44-1.73-15.62-2.59-.79-.36-2.23-.07-2.74-1-1.37-3.67-2.16-7.49-3.24-11.23,4.47-3.6,8.86-7.34,13.32-10.94Z"/><path id="use225" class="cls-1" d="M218,125.93c4.89.21,10.15,1.29,13.82,4.75,4.54,3.6,9,7.27,13.54,10.94-1,3.89-2,7.85-3,11.74l-13.46,2.16c-2.74.43-5.55,1.08-8.28.72a26.18,26.18,0,0,1-7.42-1.87c2.16.29,4.39.79,6.63.29,5.61-.94,11.23-1.88,16.92-2.74.93-3.67,1.8-7.42,2.73-11.16-4.53-3.67-9-7.42-13.53-11-2.31-1.94-5.26-2.66-7.92-3.81Z"/><path id="use227" class="cls-1" d="M202.75,150.19c1.3.58,2.52,1.08,3.82,1.66-2.52,5.11-5.76,9.86-8.21,15-1.15-.86-2.23-1.72-3.38-2.59,2.52-4.68,5.18-9.36,7.77-14Z"/><path id="use229" class="cls-1" d="M70.2,150.55c13,0,26.06-.07,39,0,2.24,5.76,4.68,11.45,7,17.21,1.94,5.18,4.17,10.22,6.26,15.41.87,2.23,2.16,4.32,2.81,6.62.5,5,.07,9.94.22,15l4.89.21c.15-4.46,0-9,.15-13.46,0-2.66,1.87-4.82,2.8-7.2,2.24-5.54,4.4-11.09,6.7-16.63,2.38-5.69,4.61-11.45,6.91-17.14,13-.07,26.07,0,39.1,0,.5,4.18.79,8.57,2.95,12.39a11,11,0,0,0,5.11,5c3.39,1.66,7.2,1.08,10.8.65-.43,2.38-1,4.75-1.44,7.13,17.28.07,34.63-.14,51.91-.58v2.74c-5.32,6.41-10.65,12.89-15.76,19.44,5.18,6.77,10.44,13.54,15.76,20.16v2.66H220.46v20.16c-16,1.88-32.11,3.24-48.16,4.47a4,4,0,0,0-2.81.86c-2,1.87-3.6,4-5.62,5.76-9.93,9.43-20.81,18.15-33.05,24.41-.14-9.65.08-19.22-.14-28.87-1.73-.07-3.46-.07-5.18-.07-.08,9.64,0,19.29-.08,28.94a117.51,117.51,0,0,1-15.84-9.86,150.38,150.38,0,0,1-22.32-19.8,3.85,3.85,0,0,0-3.16-1.52c-16.2-1.22-32.4-2.59-48.6-4.32V220.39c-11.81-.07-23.62.07-35.5-.07.36-1.3.43-2.81,1.37-3.89Q8.82,207,16.06,197.57C11.23,191.09,5.9,185.11,1,178.7c-.79-.86-.65-2.16-.79-3.24,7.92.29,15.76.15,23.68.22,9.58.43,19.23.22,28.88.22-.44-2.45-1.08-4.83-1.44-7.35,3.45.43,7.2.87,10.51-.65a9.13,9.13,0,0,0,4-3.09c3.24-4,3.74-9.36,4.32-14.26Z"/><path id="use231" class="cls-2" d="M72.07,154c11.67-.07,23.4-.07,35.07,0,4.1,10.29,8.2,20.59,12.31,30.81.79,2,2.23,3.75,2.23,5.91.22,4.68.07,9.36.07,14-19.51-.51-39-2.45-58.46-4.25A241.65,241.65,0,0,1,55,170.35c3.17.51,6.62.94,9.65-.5,2.59-1.08,4.39-3.6,5.47-6.19,1.22-3.1,1.51-6.41,1.94-9.65Z"/><path id="use233" class="cls-2" d="M148.46,153.94c11.67.07,23.26,0,34.92,0,.36,3.09.58,6.26,1.73,9.21a11.37,11.37,0,0,0,6,7c2.95,1.15,6.19.64,9.36.57a225.53,225.53,0,0,1-8.28,29.81c-13.68,1.51-27.43,2.59-41.19,3.53-5.76.36-11.52.79-17.28.72.08-4.83-.21-9.72.08-14.55a23.44,23.44,0,0,1,1.8-4.17C140,175.39,144,164.59,148.46,153.94Z"/><path id="use235" class="cls-3" d="M116.21,167.76h4.25c1.72,4.75,3.38,9.58,5.25,14.33.43-4.75.29-9.58.29-14.4,1.37.07,2.81.07,4.18.07,0,4.75,0,9.5.28,14.18,2.09-4.6,3.53-9.5,5.33-14.25H140c-2.3,5.54-4.46,11.09-6.7,16.63-.93,2.38-2.8,4.54-2.8,7.2-.15,4.46,0,9-.15,13.46l-4.89-.21c-.15-5,.28-10-.22-15-.65-2.3-1.94-4.39-2.81-6.62-2.09-5.19-4.32-10.23-6.26-15.41Z"/><path id="use239" class="cls-2" d="M237.82,178.7c4.39-.21,8.71-.14,13.1-.14-5,6.19-10.08,12.46-15,18.65,5,6.62,10.15,13.17,15.34,19.73H220.46c-.07-5.76,0-11.45,0-17.21-.07-.79.15-1.8-.36-2.52-4.6-6-9.28-12-13.75-18.07,4.25-.08,8.57.07,12.82-.22C225.36,178.63,231.62,179,237.82,178.7Z"/><path id="use241" class="cls-2" d="M4.82,178.85c5.12,0,10.23-.07,15.34.07,6.48.36,13,0,19.58.29,3.17.14,6.41.14,9.58.21-4.18,5.62-8.42,11.16-12.67,16.71a4,4,0,0,0-1.08,2.81c-.22,6.12,0,12.16-.07,18.28-10.3,0-20.67,0-31-.07,5.11-6.55,10.29-13,15.33-19.73C14.83,191.23,9.86,185,4.82,178.85Z"/><path id="use243" class="cls-2" d="M203.33,180.07c4.53,5.91,9,11.81,13.46,17.79-4.53.5-9,.93-13.53,1.58C203.26,193,203.26,186.55,203.33,180.07Z"/><path id="use245" class="cls-2" d="M39.1,197.78c4.39-5.83,8.78-11.66,13.32-17.42.07,6.26,0,12.6,0,18.94-4.4-.36-8.86-.94-13.32-1.52Z"/><path id="use247" class="cls-3" d="M55.44,186.12c1.51,4.68,3,9.29,4.25,14a42.37,42.37,0,0,1-4.32-.51C55.37,195.12,55.3,190.58,55.44,186.12Z"/><path id="use249" class="cls-3" d="M196.34,200c1.44-4,2.52-8.07,3.82-12.1.22,4,.22,7.92.22,11.81C199,199.87,197.64,199.94,196.34,200Z"/><path id="use251" class="cls-2" d="M38.66,200.81c13.83,1.44,27.51,3,41.33,4.17,17.14,1.44,34.35,3,51.55,3,24-.58,47.88-3,71.72-5.55,4.75-.5,9.5-1,14.25-1.58.07,12.24,0,24.48,0,36.79-14,1.58-28.15,2.74-42.33,3.89-15.48,1.15-31,2.23-46.52,2.45-9.64-.22-19.36-.58-28.94-1.16-20.38-1.36-40.75-2.95-61.06-5.18V200.81Z"/><path id="use253" class="cls-1" d="M201.46,209.3c2.66-.57,5.4-.72,8.13-1.08.07,1.66.22,3.32.29,5-1.08.07-2.16.22-3.24.29.07,1.58.07,3.17.29,4.75l3-.43c.15,1.58.22,3.1.36,4.68-1,.07-2.09.22-3.09.36.07,1.8.14,3.67.28,5.47l3.68-.43c.07,1.66.21,3.24.28,4.9-2.88.28-5.68.64-8.49,1.08-.58-8.14-1.3-16.35-1.51-24.56Z"/><path id="use255" class="cls-1" d="M46.58,210c1.59.22,3.24.36,4.83.58a11.48,11.48,0,0,1-.29,1.51c1.22-.72,2.81-1.87,4.25-1,2.45,1.3,1.73,4.61,1.51,6.92-.58,4-.36,8.13-1.58,12.09A3.09,3.09,0,0,1,53,231.77c-1.58.07-2.66-1.23-3.45-2.38-.15,1.44-.36,2.88-.51,4.32-1.58-.21-3.17-.43-4.75-.79.86-7.63,1.44-15.26,2.3-22.9Z"/><path id="use257" class="cls-1" d="M180.22,211.46c2.59-.21,5.11-.64,7.7-.64a3.43,3.43,0,0,1,2.66,1.65c1.44,2.31,1.08,5.26,1,7.85-.21,1-1.15,1.51-1.94,2,.93.64,2.09,1.29,2.3,2.52.51,3.31.43,6.69.72,10.08-1.58.14-3.17.36-4.75.5-.07-3.1-.07-6.26-.43-9.36.29-1.15-.72-1.37-1.37-1.73a73.56,73.56,0,0,0,.5,11.16c-1.65.22-3.38.36-5,.58-.5-8.21-.86-16.42-1.36-24.63Z"/><path id="use259" class="cls-1" d="M162.22,213.05c2.73-.15,5.47-.36,8.2-.65a37.12,37.12,0,0,0,.29,4.82l-3.45.44c.07,1.51.21,3,.28,4.53,1.08,0,2.16-.07,3.17-.07v4.61c-1,.07-1.94.21-3,.29.07,1.8,0,3.52.14,5.32l3.68-.21c.07,1.65.14,3.24.21,4.89-2.52.22-5,.51-7.63.72-.72.08-1.87-.28-1.08-1.51C162.94,228.53,162.36,220.75,162.22,213.05Z"/><path id="use261" class="cls-1" d="M107.28,213.05c2.59-.72,5.9.21,7.06,2.88a22.59,22.59,0,0,1,.21,5.4c-1.51-.15-3.09-.22-4.68-.43.07-1.08.15-2.24.22-3.39l-.58-.57c-.36.21-.72.36-1.08.57a12.73,12.73,0,0,0,.22,3.31c1.44,2.16,3.67,3.6,5,5.84.86,2.08.72,4.39.57,6.62a6.64,6.64,0,0,1-1.08,3.46c-2.44,3.24-8.49,2.23-9.72-1.73a46.19,46.19,0,0,1-.21-6.19c1.44,0,3,.14,4.46.28,0,1.8,0,3.53.15,5.33h1.36c.22-1.65.94-3.6-.21-5-1.44-1.94-3.53-3.38-4.75-5.54-.8-2-.44-4.25-.36-6.34.14-1.94,1.36-4,3.38-4.46Z"/><path id="use263" class="cls-1" d="M67.54,215.35c1.65-3,6.4-2.66,8.42-.21,2.09,2.8,1.22,6.48,1.08,9.72-2.09-.29-4.25-.58-6.34-.8,0,2.24-.28,4.47-.14,6.63h1.08a39.28,39.28,0,0,0,.72-5.11c1.51.14,3,.28,4.54.5-.15,2.45-.36,5.18-2.16,7.06-2.16,2-5.69,1.22-7.64-.72-1.72-1.95-1.36-4.9-1.22-7.28C66.24,221.83,66.1,218.38,67.54,215.35Z"/><path id="use265" class="cls-1" d="M148.25,214.06c1.73-.15,3.53-.22,5.25-.29-.64,8.21-1.29,16.49-1.94,24.77-2.52.21-5,.36-7.56.36-1.22-8.14-2.3-16.28-3.46-24.41,1.73-.15,3.46-.22,5.26-.22.43,5,1,10.15,1.51,15.19.51-5.11.43-10.29.94-15.4Z"/><path id="use267" class="cls-2" d="M51.05,214.06c.43,0,.79-.08,1.22-.08-.36,4.76-.36,9.51-1.44,14.12-.57-.51-1.51-.87-.93-1.88.14-4.1.64-8.13,1.15-12.16Z"/><path id="use269" class="cls-1" d="M124.42,214.56h8.2v5c-1.15,0-2.3.07-3.45.07v4.75h3c0,1.59-.07,3.17,0,4.75-1-.07-2-.21-3-.28-.15,1.87-.22,3.67-.22,5.54,1.22,0,2.52.07,3.82.07-.08,1.66-.15,3.31-.29,5-2.88,0-5.69-.14-8.5-.36-.21-6.41.29-12.81.22-19.29a42.15,42.15,0,0,1,.29-5.26Z"/><path id="use271" class="cls-2" d="M185.54,214.85c2.16.86,1.44,3.45,1.59,5.25a7.32,7.32,0,0,1-1.37.58c-.14-1.94-.22-3.89-.22-5.83Z"/><path id="use273" class="cls-1" d="M87.55,215.57c1.51.14,3.1.29,4.61.5-.14.65-.14,1.51-.22,2.16a7.83,7.83,0,0,1,3.1-2.37c-.14,2.37-.14,4.68-.5,7a7,7,0,0,0-2.31.86c-.57.65-.5,1.66-.65,2.45-.36,3.39-.57,6.77-.79,10.15-1.58-.14-3.17-.28-4.75-.57.36-6.77.86-13.47,1.51-20.16Z"/><path id="use275" class="cls-2" d="M71.5,216.94h1.15a38.76,38.76,0,0,1-.07,4c-.51-.07-.94-.22-1.44-.29.14-1.22.28-2.52.36-3.74Z"/><path id="use277" class="cls-2" d="M91.22,245.23c5.69.07,11.31.72,16.92.94,4.54.29,9.08.21,13.61.65v21.45c-11.3-6-21.38-14-30.53-23Z"/><path id="use279" class="cls-2" d="M133.7,246.89c10.16-.36,20.31-.79,30.46-1.59a125.13,125.13,0,0,1-19.51,16.49,92.63,92.63,0,0,1-11,6.55C133.63,261.22,133.7,254,133.7,246.89Z"/></g></g></g></g></svg>