<?xml version="1.0" encoding="UTF-8" standalone="no"?>
<!-- Created with Inkscape (http://www.inkscape.org/) -->

<svg
   xmlns:dc="http://purl.org/dc/elements/1.1/"
   xmlns:cc="http://creativecommons.org/ns#"
   xmlns:rdf="http://www.w3.org/1999/02/22-rdf-syntax-ns#"
   xmlns:svg="http://www.w3.org/2000/svg"
   xmlns="http://www.w3.org/2000/svg"
   xmlns:sodipodi="http://sodipodi.sourceforge.net/DTD/sodipodi-0.dtd"
   xmlns:inkscape="http://www.inkscape.org/namespaces/inkscape"
   version="1.1"
   id="svg815"
   xml:space="preserve"
   width="359.556"
   height="288"
   viewBox="0 0 359.556 288"
   sodipodi:docname="logo.svg"
   inkscape:version="0.92.4 (5da689c313, 2019-01-14)"><metadata
     id="metadata821"><rdf:RDF><cc:Work
         rdf:about=""><dc:format>image/svg+xml</dc:format><dc:type
           rdf:resource="http://purl.org/dc/dcmitype/StillImage" /><dc:title></dc:title></cc:Work></rdf:RDF></metadata><defs
     id="defs819"><clipPath
       clipPathUnits="userSpaceOnUse"
       id="clipPath837"><path
         d="M 0,0 H 270 V 216 H 0 Z"
         id="path835"
         inkscape:connector-curvature="0" /></clipPath></defs><sodipodi:namedview
     pagecolor="#ffffff"
     bordercolor="#666666"
     borderopacity="1"
     objecttolerance="10"
     gridtolerance="10"
     guidetolerance="10"
     inkscape:pageopacity="0"
     inkscape:pageshadow="2"
     inkscape:window-width="1513"
     inkscape:window-height="734"
     id="namedview817"
     showgrid="false"
     inkscape:zoom="2.6493056"
     inkscape:cx="179.778"
     inkscape:cy="191.89725"
     inkscape:window-x="152"
     inkscape:window-y="152"
     inkscape:window-maximized="0"
     inkscape:current-layer="g823" /><g
     id="g823"
     inkscape:groupmode="layer"
     inkscape:label="5962perSEVERE-black-gold"
     transform="matrix(1.3333333,0,0,1.3333333,0,7.2e-6)"><g
       id="g825"><path
         d="m 12.691,76.855 h 244.285 v 62.828 H 12.691 Z"
         style="fill:#000000;fill-opacity:1;fill-rule:nonzero;stroke:none"
         id="path827"
         inkscape:connector-curvature="0" /><g
         id="g829"><g
           id="g831"><g
             id="g833"
             clip-path="url(#clipPath837)"><g
               id="g839"><path
                 d="M 14.953,137.418 H 254.715 V 79.117 H 14.953 Z m 242.024,4.527 H 12.691 c -1.25,0 -2.265,-1.011 -2.265,-2.261 V 76.855 c 0,-1.25 1.015,-2.265 2.265,-2.265 h 244.286 c 1.25,0 2.261,1.015 2.261,2.265 v 62.829 c 0,1.25 -1.011,2.261 -2.261,2.261"
                 style="fill:#ffcc00;fill-opacity:1;fill-rule:nonzero;stroke:none"
                 id="path841"
                 inkscape:connector-curvature="0" /><path
                 d="m 215.984,111.18 c 0,44.269 -35.886,80.152 -80.156,80.152 -44.265,0 -80.152,-35.883 -80.152,-80.152 0,-44.27 35.887,-80.153 80.152,-80.153 44.27,0 80.156,35.883 80.156,80.153"
                 style="fill:#000000;fill-opacity:1;fill-rule:nonzero;stroke:none"
                 id="path843"
                 inkscape:connector-curvature="0" /><path
                 d="m 56.445,101.563 c 5.496,-43.817 45.61,-74.997 89.426,-69.5 43.817,5.492 74.996,45.605 69.504,89.421 m 21.926,-2.074 -14.582,-3.91 c 0.14,-3.09 0.125,-6.156 -0.059,-9.187 l 14.535,-4.09 -1.121,-8.125 -15.234,-1.02 c -0.707,-3.226 -1.578,-6.398 -2.637,-9.496 l 12.602,-8.672 -3.188,-7.558 -14.711,3.937 c -1.414,-2.691 -2.968,-5.305 -4.648,-7.832 l 10.672,-10.941 -5.032,-6.473 -13.914,6.832 c -2.179,-2.383 -4.48,-4.664 -6.918,-6.801 l 6.676,-14.015 -6.539,-4.954 -10.926,10.922 c -2.523,-1.597 -5.14,-3.062 -7.839,-4.402 l 3.824,-15.023 -7.594,-3.09 -8.773,13.086 c -2.907,-0.91 -5.883,-1.672 -8.926,-2.282 l -0.199,-15.668 -8.137,-1.019 -5.141,15.07 c -3.168,-0.133 -6.308,-0.097 -9.414,0.11 l -5.344,-15.059 -8.129,1.121 0.004,15.902 c -2.859,0.653 -5.668,1.446 -8.421,2.379 l -8.153,-13.726 -7.558,3.183 3.144,15.95 c -2.719,1.429 -5.351,3 -7.898,4.699 l -12.422,-10.594 -6.477,5.035 8.11,14.047 c -2.102,1.942 -4.114,3.984 -6.02,6.129 L 56.746,45.93 51.797,52.469 62.609,64.836 c -1.625,2.543 -3.113,5.187 -4.476,7.914 l -16.18,-2.988 -3.094,7.597 14.129,8.161 c -0.843,2.695 -1.562,5.453 -2.144,8.265 l -16.328,0.203"
                 style="fill:#ffcd00;fill-opacity:1;fill-rule:nonzero;stroke:none"
                 id="path845"
                 inkscape:connector-curvature="0" /><path
                 d="m 215.043,114.438 c -5.492,43.816 -45.605,74.996 -89.422,69.503 -43.82,-5.496 -74.996,-45.609 -69.504,-89.425 m -21.926,2.07 14.582,3.914 c -0.14,3.09 -0.125,6.156 0.059,9.188 l -14.535,4.089 1.121,8.125 15.234,1.02 c 0.707,3.226 1.578,6.398 2.637,9.496 l -12.601,8.672 3.183,7.558 14.715,-3.941 c 1.414,2.695 2.965,5.309 4.648,7.832 l -10.671,10.945 5.031,6.473 13.914,-6.836 c 2.18,2.387 4.48,4.668 6.918,6.805 l -6.68,14.015 6.539,4.954 10.93,-10.922 c 2.523,1.597 5.14,3.062 7.84,4.402 l -3.825,15.023 7.594,3.09 8.774,-13.086 c 2.906,0.911 5.882,1.672 8.925,2.282 l 0.196,15.668 8.14,1.019 5.141,-15.07 c 3.164,0.133 6.309,0.101 9.414,-0.11 l 5.344,15.059 8.125,-1.125 v -15.898 c 2.859,-0.653 5.668,-1.446 8.422,-2.379 l 8.152,13.726 7.559,-3.183 -3.145,-15.95 c 2.715,-1.429 5.348,-3 7.899,-4.699 l 12.421,10.59 6.473,-5.031 -8.109,-14.047 c 2.105,-1.941 4.117,-3.984 6.023,-6.129 l 14.164,7.945 4.953,-6.539 -10.816,-12.371 c 1.629,-2.543 3.117,-5.183 4.48,-7.91 l 16.18,2.988 3.094,-7.597 -14.133,-8.161 c 0.844,-2.695 1.566,-5.453 2.148,-8.265 l 16.329,-0.207"
                 style="fill:#ffcd00;fill-opacity:1;fill-rule:nonzero;stroke:none"
                 id="path847"
                 inkscape:connector-curvature="0" /><path
                 d="m 204.43,108 c 0,37.934 -30.75,68.684 -68.684,68.684 -37.933,0 -68.683,-30.75 -68.683,-68.684 0,-37.934 30.75,-68.684 68.683,-68.684 37.934,0 68.684,30.75 68.684,68.684"
                 style="fill:#000000;fill-opacity:1;fill-rule:nonzero;stroke:none"
                 id="path849"
                 inkscape:connector-curvature="0" /><path
                 d="m 135.746,40.816 c -37.047,0 -67.183,30.137 -67.183,67.184 0,37.047 30.136,67.184 67.183,67.184 37.047,0 67.184,-30.137 67.184,-67.184 0,-37.047 -30.137,-67.184 -67.184,-67.184 m 0,137.368 c -38.699,0 -70.183,-31.485 -70.183,-70.184 0,-38.699 31.484,-70.184 70.183,-70.184 38.699,0 70.184,31.485 70.184,70.184 0,38.699 -31.485,70.184 -70.184,70.184"
                 style="fill:#ffcd00;fill-opacity:1;fill-rule:nonzero;stroke:none"
                 id="path851"
                 inkscape:connector-curvature="0" /><path
                 d="m 162.648,130.707 c -2.328,-1.344 -3.125,-4.32 -1.781,-6.648 1.344,-2.329 4.321,-3.125 6.649,-1.782 2.328,1.344 3.125,4.321 1.781,6.649 -1.344,2.328 -4.32,3.125 -6.649,1.781 m -14.476,10.918 c -1.348,-2.328 -0.547,-5.305 1.781,-6.648 2.328,-1.344 5.305,-0.547 6.649,1.781 1.343,2.328 0.546,5.305 -1.782,6.648 -2.332,1.344 -5.304,0.547 -6.648,-1.781 m -13.133,7.082 c -2.691,0 -4.867,-2.18 -4.867,-4.867 0,-2.692 2.176,-4.867 4.867,-4.867 2.688,0 4.867,2.175 4.867,4.867 0,2.687 -2.179,4.867 -4.867,4.867 m -19.781,-5.301 c -2.328,-1.343 -3.129,-4.32 -1.781,-6.648 1.343,-2.332 4.32,-3.129 6.648,-1.785 2.328,1.347 3.125,4.324 1.781,6.652 -1.343,2.328 -4.32,3.125 -6.648,1.781 m -14.481,-14.48 c -1.343,-2.328 -0.547,-5.305 1.782,-6.649 2.328,-1.343 5.304,-0.547 6.648,1.782 1.344,2.328 0.547,5.304 -1.781,6.648 -2.328,1.344 -5.305,0.547 -6.649,-1.781 m 4.434,-19.781 c 0,2.687 -2.18,4.867 -4.867,4.867 -2.688,0 -4.867,-2.18 -4.867,-4.867 0,-2.688 2.179,-4.868 4.867,-4.868 2.687,0 4.867,2.18 4.867,4.868 m 16.695,-32.477 c 1.348,2.324 0.547,5.301 -1.781,6.645 -2.328,1.347 -5.305,0.546 -6.648,-1.782 -1.344,-2.328 -0.547,-5.304 1.781,-6.648 2.328,-1.344 5.305,-0.547 6.648,1.785 m 13.133,-7.086 c 2.688,0 4.867,2.18 4.867,4.867 0,2.692 -2.179,4.867 -4.867,4.867 -2.691,0 -4.867,-2.175 -4.867,-4.867 0,-2.687 2.176,-4.867 4.867,-4.867 m 17.578,39.555 c 0,9.664 -7.863,17.527 -17.527,17.527 -9.668,0 -17.531,-7.863 -17.531,-17.527 0,-9.668 7.863,-17.532 17.531,-17.532 9.664,0 17.527,7.864 17.527,17.532 m 2.199,-34.254 c 2.329,1.344 3.129,4.32 1.782,6.648 -1.344,2.328 -4.321,3.129 -6.649,1.782 -2.328,-1.344 -3.125,-4.321 -1.781,-6.649 1.344,-2.328 4.32,-3.125 6.648,-1.781 m 14.914,29.394 c 2.692,0 4.868,2.18 4.868,4.868 0,2.687 -2.176,4.867 -4.868,4.867 -2.687,0 -4.867,-2.18 -4.867,-4.867 0,-2.688 2.18,-4.868 4.867,-4.868 m 18.024,8.778 7.969,-0.93 v -5.215 l -7.953,-1.457 c -0.145,-2.16 -0.422,-4.285 -0.825,-6.367 l 7.293,-3.461 -1.351,-5.035 -7.914,1.16 c -0.653,-1.863 -1.391,-3.684 -2.235,-5.445 l 6.403,-4.766 -2.61,-4.516 -7.562,2.696 c -1.203,-1.789 -2.52,-3.492 -3.926,-5.117 l 4.562,-6.61 -3.687,-3.683 -6.23,4.925 c -1.493,-1.293 -3.047,-2.504 -4.676,-3.629 l 3.133,-7.261 -4.512,-2.606 -5.141,6.039 c -1.937,-0.961 -3.945,-1.804 -6.012,-2.523 l 0.633,-7.871 -5.035,-1.352 -2.879,7.258 c -2.031,-0.394 -4.109,-0.668 -6.219,-0.82 l -1.414,-7.715 h -5.214 l -0.895,7.695 c -2.023,0.137 -4.016,0.387 -5.969,0.746 l -2.847,-7.164 -5.036,1.352 0.622,7.691 c -2.118,0.715 -4.176,1.543 -6.164,2.508 l -4.973,-5.844 -4.516,2.606 3.008,6.969 c -1.684,1.136 -3.293,2.378 -4.832,3.699 l -5.945,-4.707 -3.688,3.687 4.321,6.258 c -1.481,1.684 -2.868,3.453 -4.125,5.313 l -7.125,-2.54 -2.606,4.516 6.004,4.469 C 86.695,87.84 85.91,89.73 85.23,91.672 l -7.398,-1.086 -1.348,5.039 6.789,3.223 c -0.433,2.187 -0.722,4.425 -0.875,6.707 L 75,106.91 v 5.211 l 7.418,0.867 c 0.148,2.067 0.414,4.098 0.793,6.094 l -6.934,2.754 1.348,5.035 7.496,-0.605 c 0.734,2.148 1.598,4.23 2.594,6.246 l -5.735,4.875 2.61,4.515 6.879,-2.972 c 1.156,1.691 2.414,3.3 3.75,4.84 l -4.668,5.902 3.687,3.687 6.258,-4.32 c 1.688,1.465 3.465,2.828 5.328,4.074 l -2.558,7.176 4.515,2.606 4.532,-6.086 c 1.82,0.871 3.699,1.629 5.625,2.289 l -1.106,7.547 5.035,1.347 3.313,-6.972 c 2.054,0.386 4.148,0.656 6.281,0.8 l 0.891,7.66 h 5.214 l 1.407,-7.675 c 2.215,-0.164 4.394,-0.45 6.527,-0.875 l 3.352,7.062 5.035,-1.347 -1.129,-7.723 c 1.883,-0.668 3.722,-1.442 5.504,-2.313 l 4.676,6.286 4.515,-2.606 -2.66,-7.473 c 1.793,-1.218 3.504,-2.558 5.129,-3.984 l 6.562,4.527 3.688,-3.687 -4.93,-6.231 c 1.278,-1.496 2.485,-3.054 3.594,-4.691 l 7.297,3.152 2.605,-4.515 -6.109,-5.199 c 0.934,-1.926 1.746,-3.918 2.441,-5.965 l 8.024,0.648 1.351,-5.035 -7.445,-2.957 c 0.355,-1.906 0.609,-3.852 0.754,-5.824"
                 style="fill:#ffcc00;fill-opacity:1;fill-rule:nonzero;stroke:none"
                 id="path853"
                 inkscape:connector-curvature="0" /><path
                 d="m 228.066,86.289 h 18.391 v 45.184 H 23.211 V 86.289 Z"
                 style="fill:#000000;fill-opacity:1;fill-rule:nonzero;stroke:none"
                 id="path855"
                 inkscape:connector-curvature="0" /><path
                 d="M 25.473,129.207 H 244.195 V 88.555 H 25.473 Z m 220.988,4.527 H 23.211 c -1.25,0 -2.266,-1.011 -2.266,-2.261 V 86.289 c 0,-1.25 1.016,-2.262 2.266,-2.262 h 223.25 c 1.246,0 2.262,1.012 2.262,2.262 v 45.184 c 0,1.25 -1.016,2.261 -2.262,2.261"
                 style="fill:#ffcd00;fill-opacity:1;fill-rule:nonzero;stroke:none"
                 id="path857"
                 inkscape:connector-curvature="0" /><path
                 d="m 34.934,114.98 v -1.824 h 3.082 v 1.641 c 0,0.695 0.254,0.953 0.949,0.953 h 4.203 c 0.723,0 0.977,-0.258 0.977,-0.953 v -4.309 c 0,-0.691 -0.254,-0.949 -1.59,-0.949 -2.129,0 -3.157,0.41 -4.336,1.106 l -3.078,-0.821 v -9.211 h 11.648 v 2.821 h -8.57 v 5.441 c 1.027,-1.207 2.027,-2.105 4.746,-2.105 3.105,0 4.258,1.152 4.258,3.593 v 4.539 c 0,2.438 -1.231,3.668 -3.668,3.668 h -5.028 c -2.437,0 -3.593,-1.156 -3.593,-3.59"
                 style="fill:#ffcd00;fill-opacity:1;fill-rule:nonzero;stroke:none"
                 id="path859"
                 inkscape:connector-curvature="0" /><path
                 d="m 59.848,107.926 v -3.543 c 0,-0.692 -0.258,-0.949 -0.95,-0.949 h -4.363 c -0.715,0 -0.972,0.257 -0.972,0.949 v 3.695 c 0,0.692 0.257,0.949 1.746,0.949 2.254,0 3.382,-0.41 4.539,-1.101 m -9.133,7.054 v -1.617 h 3.078 v 1.438 c 0,0.668 0.285,0.945 0.949,0.945 h 4.156 c 0.668,0 0.95,-0.277 0.95,-0.945 v -5.106 c -1,1.203 -2.129,2.102 -4.977,2.102 -3.234,0 -4.387,-1.152 -4.387,-3.59 v -4.004 c 0,-2.437 1.153,-3.59 3.594,-3.59 h 5.258 c 2.437,0 3.59,1.153 3.59,3.59 v 10.777 c 0,2.434 -1.153,3.59 -3.59,3.59 h -5.027 c -2.442,0 -3.594,-1.156 -3.594,-3.59"
                 style="fill:#ffcd00;fill-opacity:1;fill-rule:nonzero;stroke:none"
                 id="path861"
                 inkscape:connector-curvature="0" /><path
                 d="m 74.805,115.75 c 0.695,0 0.949,-0.258 0.949,-0.949 v -3.824 c 0,-0.692 -0.254,-0.95 -1.719,-0.95 -2.254,0 -3.387,0.411 -4.566,1.106 v 3.668 c 0,0.691 0.258,0.949 0.976,0.949 z m -8.414,-0.77 v -10.777 c 0,-2.437 1.156,-3.594 3.593,-3.594 h 5.055 c 2.434,0 3.59,1.157 3.59,3.594 v 1.617 h -3.078 v -1.437 c 0,-0.617 -0.332,-0.949 -0.973,-0.949 h -4.133 c -0.64,0 -0.976,0.332 -0.976,0.949 v 5.004 c 1.027,-1.231 2.129,-2.106 5.004,-2.106 3.207,0 4.363,1.157 4.363,3.594 v 4.105 c 0,2.434 -1.156,3.59 -3.594,3.59 h -5.258 c -2.437,0 -3.593,-1.156 -3.593,-3.59"
                 style="fill:#ffcd00;fill-opacity:1;fill-rule:nonzero;stroke:none"
                 id="path863"
                 inkscape:connector-curvature="0" /><path
                 d="m 82.121,113.031 c 0,-2.004 1.41,-2.746 3.692,-3.695 l 4.234,-1.773 c 0.82,-0.356 1.285,-0.536 1.285,-1.254 v -1.926 c 0,-0.692 -0.258,-0.949 -0.949,-0.949 h -4.082 c -0.692,0 -0.949,0.257 -0.949,0.949 v 1.719 h -3 v -1.899 c 0,-2.437 1.152,-3.59 3.589,-3.59 h 4.875 c 2.438,0 3.594,1.153 3.594,3.59 v 2.641 c 0,2.004 -1.387,2.746 -3.695,3.699 l -4.207,1.77 c -0.824,0.355 -1.309,0.535 -1.309,1.257 v 2.18 h 9.262 v 2.82 h -12.34 z"
                 style="fill:#ffcd00;fill-opacity:1;fill-rule:nonzero;stroke:none"
                 id="path865"
                 inkscape:connector-curvature="0" /><path
                 d="m 112.496,114.875 v -6.465 c 0,-0.871 -0.254,-1.152 -1.484,-1.152 -2.004,0 -2.977,0.383 -4.184,1.101 v 6.571 c 1.207,0.715 2.18,1.101 4.184,1.101 1.23,0 1.484,-0.281 1.484,-1.156 m -8.617,-10.16 h 2.949 v 2.004 c 1.078,-1.231 2.027,-2.106 4.668,-2.106 2.875,0 3.953,1.078 3.953,3.567 v 6.925 c 0,2.493 -1.078,3.567 -3.953,3.567 -2.641,0 -3.59,-0.871 -4.668,-2.102 v 6.106 h -2.949 z"
                 style="fill:#ffcd00;fill-opacity:1;fill-rule:nonzero;stroke:none"
                 id="path867"
                 inkscape:connector-curvature="0" /><path
                 d="m 121.375,108.129 v 2.23 h 5.285 v -2.23 c 0,-0.719 -0.258,-0.977 -0.972,-0.977 h -3.336 c -0.719,0 -0.977,0.258 -0.977,0.977 m 0,4.312 v 2.719 c 0,0.719 0.258,0.973 0.977,0.973 h 3.336 c 0.714,0 0.972,-0.254 0.972,-0.973 v -1.055 h 2.949 v 1.079 c 0,2.308 -1.074,3.386 -3.386,3.386 h -4.41 c -2.309,0 -3.387,-1.078 -3.387,-3.386 v -7.079 c 0,-2.312 1.078,-3.39 3.387,-3.39 h 4.41 c 2.312,0 3.386,1.078 3.386,3.39 v 4.336 z"
                 style="fill:#ffcd00;fill-opacity:1;fill-rule:nonzero;stroke:none"
                 id="path869"
                 inkscape:connector-curvature="0" /><path
                 d="m 132.77,104.715 h 2.949 v 2.105 c 1.027,-1.207 2.027,-2.105 4.105,-2.105 h 1.051 v 2.801 h -1.488 c -1.489,0 -2.512,0.41 -3.668,1.074 v 9.98 h -2.949 z"
                 style="fill:#ffcd00;fill-opacity:1;fill-rule:nonzero;stroke:none"
                 id="path871"
                 inkscape:connector-curvature="0" /><path
                 d="m 143.059,114.98 v -2.105 h 3.027 v 1.977 c 0,0.718 0.254,0.972 0.949,0.972 h 4.875 c 0.692,0 0.949,-0.254 0.949,-0.972 v -2.157 c 0,-0.82 -0.336,-1.078 -1.183,-1.257 l -4.871,-1.075 c -2.157,-0.488 -3.696,-1.258 -3.696,-3.695 v -2.465 c 0,-2.437 1.153,-3.59 3.59,-3.59 h 5.364 c 2.437,0 3.589,1.153 3.589,3.59 v 1.926 h -3 v -1.797 c 0,-0.719 -0.257,-0.973 -0.976,-0.973 h -4.512 c -0.723,0 -0.976,0.254 -0.976,0.973 v 1.898 c 0,0.821 0.332,1.079 1.203,1.286 l 4.851,1.05 c 2.18,0.485 3.696,1.258 3.696,3.692 v 2.722 c 0,2.434 -1.157,3.59 -3.594,3.59 h -5.696 c -2.437,0 -3.589,-1.156 -3.589,-3.59"
                 style="fill:#ffcd00;fill-opacity:1;fill-rule:nonzero;stroke:none"
                 id="path873"
                 inkscape:connector-curvature="0" /><path
                 d="m 159.711,100.613 h 11.824 v 2.821 h -8.746 V 108 h 7.207 v 2.77 h -7.207 v 4.98 h 8.746 v 2.82 h -11.824 z"
                 style="fill:#ffcd00;fill-opacity:1;fill-rule:nonzero;stroke:none"
                 id="path875"
                 inkscape:connector-curvature="0" /><path
                 d="m 173.41,100.613 h 3.36 l 4.234,14.571 4.262,-14.571 h 3.254 l -5.77,17.957 h -3.566 z"
                 style="fill:#ffcd00;fill-opacity:1;fill-rule:nonzero;stroke:none"
                 id="path877"
                 inkscape:connector-curvature="0" /><path
                 d="m 191.27,100.613 h 11.824 v 2.821 h -8.746 V 108 h 7.207 v 2.77 h -7.207 v 4.98 h 8.746 v 2.82 H 191.27 Z"
                 style="fill:#ffcd00;fill-opacity:1;fill-rule:nonzero;stroke:none"
                 id="path879"
                 inkscape:connector-curvature="0" /><path
                 d="m 215.359,109.129 c 0.692,0 0.95,-0.254 0.95,-0.977 v -3.793 c 0,-0.695 -0.258,-0.949 -0.95,-0.949 h -5.695 v 5.719 z m 4.594,9.441 h -3.336 l -3.308,-6.695 h -3.645 v 6.695 h -3.078 v -17.961 h 9.211 c 2.437,0 3.59,1.157 3.59,3.594 v 4.004 c 0,2.152 -0.895,3.309 -2.793,3.539 z"
                 style="fill:#ffcd00;fill-opacity:1;fill-rule:nonzero;stroke:none"
                 id="path881"
                 inkscape:connector-curvature="0" /><path
                 d="m 223.313,100.613 h 11.828 v 2.821 h -8.75 V 108 h 7.211 v 2.77 h -7.211 v 4.98 h 8.75 v 2.82 h -11.828 z"
                 style="fill:#ffcd00;fill-opacity:1;fill-rule:nonzero;stroke:none"
                 id="path883"
                 inkscape:connector-curvature="0" /></g></g></g></g></g></g></svg>